#!OML:ASF E:\emotionWalksFemale\Project 1\Capture day 1\Session 1\Female1.ASF
:FULLY-SPECIFIED
:DEGREES
278
root 7.93173 14.9415 41.2672 176.676 -5.18843 178.801
lowerback 0.673131 3.62795 3.20639
upperback -5.81643 4.64832 -1.23128
thorax -6.05852 1.98484 -3.31918
lowerneck 0.348396 -6.03626 -11.7809
upperneck 10.806 -9.46972 10.5922
head 4.20555 -4.95758 4.77237
rclavicle 1.4561e-014 3.57812e-015
rhumerus -56.6365 27.749 -112.49
rradius 34.3014
rwrist 3.87648
rhand 160.116 -68.4967
rfingers 7.12502
rthumb -173.548 -38.615
lclavicle 1.4561e-014 3.57812e-015
lhumerus -43.5634 -8.52805 89.3414
lradius 36.398
lwrist -14.0962
lhand 17.5199 -24.1261
lfingers 7.12502
lthumb 42.2181 0.390491
rfemur -1.04546 13.1262 22.1117
rtibia 32.4763
rfoot -32.4149 -30.5916
rtoes 8.9209
lfemur -2.76316 -16.4858 -30.5611
ltibia 30.9829
lfoot -27.5492 16.3287
ltoes -22.0747
279
root 7.91757 14.9405 41.2646 176.734 -5.2124 178.627
lowerback 0.584233 3.73772 2.89776
upperback -5.93573 4.77143 -1.1614
thorax -6.15421 2.05403 -3.07999
lowerneck 0.516883 -6.15429 -11.9591
upperneck 11.1834 -9.66633 10.2915
head 4.30973 -5.08723 4.69648
rclavicle -4.28629e-014 4.96962e-016
rhumerus -57.2227 28.1635 -112.891
rradius 34.3615
rwrist 4.06445
rhand 160.239 -68.4692
rfingers 7.12502
rthumb -173.43 -38.5911
lclavicle -4.28629e-014 4.96962e-016
lhumerus -43.4472 -8.06187 89.3695
lradius 36.1343
lwrist -14.4527
lhand 18.541 -24.3688
lfingers 7.12502
lthumb 43.1735 -0.184499
rfemur -1.21531 12.8721 21.7792
rtibia 32.6797
rfoot -32.3062 -30.6669
rtoes 7.77801
lfemur -2.77144 -16.2332 -30.7462
ltibia 30.8784
lfoot -27.5162 15.8871
ltoes -22.7447
280
root 7.9046 14.9381 41.2653 176.655 -4.92126 178.461
lowerback 0.597211 3.94988 2.77668
upperback -5.90449 5.05183 -1.20144
thorax -6.11511 2.20099 -3.06735
lowerneck 0.454704 -6.29625 -12.0035
upperneck 11.5769 -9.88403 10.0992
head 4.45816 -5.21064 4.62271
rclavicle 9.14409e-015 -1.20265e-014
rhumerus -57.4611 28.5687 -113.349
rradius 34.3137
rwrist 4.01371
rhand 160.469 -68.37
rfingers 7.12502
rthumb -173.207 -38.499
lclavicle 9.14409e-015 -1.20265e-014
lhumerus -43.3135 -8.18115 89.367
lradius 36.275
lwrist -14.1777
lhand 19.4433 -23.9905
lfingers 7.12502
lthumb 44.0161 -0.113595
rfemur -1.26809 12.8478 21.4754
rtibia 32.7702
rfoot -31.7922 -30.4642
rtoes 7.07319
lfemur -2.71489 -15.538 -30.9058
ltibia 30.8603
lfoot -27.5706 15.6211
ltoes -23.4967
281
root 7.89717 14.934 41.2571 176.483 -5.40386 178.543
lowerback 0.410855 3.90513 2.88024
upperback -5.72356 4.99952 -1.2727
thorax -5.80502 2.18472 -3.17351
lowerneck 0.284625 -6.40676 -12.0914
upperneck 11.9136 -10.0813 10.238
head 4.62227 -5.30958 4.6575
rclavicle -5.41688e-015 1.23246e-014
rhumerus -57.4138 28.9837 -113.817
rradius 34.173
rwrist 4.07421
rhand 159.552 -68.8554
rfingers 7.12502
rthumb -174.093 -38.9578
lclavicle -5.41688e-015 1.23246e-014
lhumerus -43.1275 -8.60261 89.346
lradius 36.4815
lwrist -13.9443
lhand 16.8693 -23.5915
lfingers 7.12502
lthumb 41.6082 1.12845
rfemur -0.951156 12.8064 21.695
rtibia 32.8008
rfoot -32.1075 -30.6585
rtoes 8.8707
lfemur -2.55337 -15.4262 -30.8144
ltibia 30.8999
lfoot -27.5051 15.2727
ltoes -24.1211
282
root 7.89912 14.9283 41.2444 176.114 -5.81586 178.886
lowerback 0.407515 3.88204 3.0247
upperback -5.56841 4.99244 -1.19989
thorax -5.63406 2.18983 -3.17052
lowerneck 0.289183 -6.51229 -12.2829
upperneck 11.9834 -10.2854 10.5812
head 4.69248 -5.40937 4.78135
rclavicle -3.08613e-014 -4.77083e-015
rhumerus -57.472 29.248 -114.216
rradius 34.1207
rwrist 4.01844
rhand 160.49 -68.2796
rfingers 7.12502
rthumb -173.187 -38.4092
lclavicle -3.08613e-014 -4.77083e-015
lhumerus -42.7422 -8.65656 89.2113
lradius 36.1349
lwrist -14.1261
lhand 17.7356 -24.1448
lfingers 7.12502
lthumb 42.4201 0.302973
rfemur -0.40799 13.1175 22.3955
rtibia 32.7927
rfoot -32.5156 -31.339
rtoes 10.2321
lfemur -2.205 -15.6729 -30.5334
ltibia 31.0178
lfoot -27.5804 15.0745
ltoes -22.2184
283
root 7.88371 14.9277 41.2473 176.063 -5.69253 178.906
lowerback 0.508304 4.10072 3.1866
upperback -5.65764 5.28701 -1.27342
thorax -5.74417 2.31978 -3.35986
lowerneck 0.523173 -6.64831 -12.277
upperneck 12.1119 -10.5208 10.4937
head 4.71574 -5.54342 4.74347
rclavicle 2.0773e-014 -1.31198e-014
rhumerus -57.6671 29.3725 -114.651
rradius 33.9912
rwrist 3.82898
rhand 159.611 -68.4624
rfingers 7.12502
rthumb -174.036 -38.5664
lclavicle 2.0773e-014 -1.31198e-014
lhumerus -42.3892 -8.45524 88.9283
lradius 35.9726
lwrist -13.4472
lhand 20.6156 -24.6271
lfingers 7.12502
lthumb 45.1082 -1.17029
rfemur -0.412182 13.0108 22.3006
rtibia 32.7809
rfoot -32.0628 -31.142
rtoes 10.5929
lfemur -2.22336 -15.6047 -30.5957
ltibia 31.1394
lfoot -27.6835 15.0515
ltoes -21.8028
284
root 7.87068 14.9225 41.2492 175.869 -5.78243 178.941
lowerback 0.669249 4.1839 3.28127
upperback -5.68066 5.40943 -1.28594
thorax -5.842 2.37319 -3.44447
lowerneck 0.559387 -6.79142 -12.2092
upperneck 12.5053 -10.7506 10.2102
head 4.83925 -5.67773 4.62394
rclavicle 3.09607e-014 -6.55989e-015
rhumerus -58.0131 29.8296 -115.3
rradius 33.8484
rwrist 3.65833
rhand 159.993 -68.0983
rfingers 7.12502
rthumb -173.667 -38.213
lclavicle 3.09607e-014 -6.55989e-015
lhumerus -42.5068 -8.57325 88.9612
lradius 36.1006
lwrist -13.6005
lhand 20.5602 -24.5448
lfingers 7.12502
lthumb 45.0566 -1.06762
rfemur -0.247118 12.6847 22.2517
rtibia 32.8278
rfoot -31.9789 -30.8533
rtoes 10.6317
lfemur -2.11757 -15.1066 -30.5467
ltibia 31.2203
lfoot -27.6369 14.5751
ltoes -21.3908
